<svg xmlns="http://www.w3.org/2000/svg" viewBox="0 0 32 32" width="32" height="32">
  <defs>
    <radialGradient id="glow" cx="50%" cy="50%" r="50%">
      <stop offset="0%" stop-color="#F5E6C8" stop-opacity="0.15"/>
      <stop offset="100%" stop-color="#0A0A0A" stop-opacity="0"/>
    </radialGradient>
  </defs>

  <!-- Background -->
  <rect width="32" height="32" fill="#0A0A0A" rx="4"/>
  <rect width="32" height="32" fill="url(#glow)" rx="4"/>

  <!-- Fingerprint-like concentric arc lines, pixel/blocky style -->
  <!-- Center dot -->
  <rect x="15" y="15" width="2" height="2" fill="#F5E6C8"/>

  <!-- Ring 1 -->
  <rect x="13" y="14" width="2" height="1" fill="#F5E6C8" opacity="0.9"/>
  <rect x="17" y="14" width="2" height="1" fill="#F5E6C8" opacity="0.9"/>
  <rect x="14" y="13" width="4" height="1" fill="#F5E6C8" opacity="0.9"/>
  <rect x="13" y="17" width="2" height="1" fill="#F5E6C8" opacity="0.9"/>
  <rect x="17" y="17" width="2" height="1" fill="#F5E6C8" opacity="0.9"/>
  <rect x="14" y="18" width="4" height="1" fill="#F5E6C8" opacity="0.9"/>
  <rect x="13" y="15" width="1" height="2" fill="#F5E6C8" opacity="0.9"/>
  <rect x="18" y="15" width="1" height="2" fill="#F5E6C8" opacity="0.9"/>

  <!-- Ring 2 -->
  <rect x="11" y="13" width="2" height="1" fill="#D4A96A" opacity="0.75"/>
  <rect x="19" y="13" width="2" height="1" fill="#D4A96A" opacity="0.75"/>
  <rect x="12" y="11" width="2" height="2" fill="#D4A96A" opacity="0.75"/>
  <rect x="18" y="11" width="2" height="2" fill="#D4A96A" opacity="0.75"/>
  <rect x="14" y="10" width="4" height="1" fill="#D4A96A" opacity="0.75"/>

  <rect x="11" y="18" width="2" height="1" fill="#D4A96A" opacity="0.75"/>
  <rect x="19" y="18" width="2" height="1" fill="#D4A96A" opacity="0.75"/>
  <rect x="12" y="19" width="2" height="2" fill="#D4A96A" opacity="0.75"/>
  <rect x="18" y="19" width="2" height="2" fill="#D4A96A" opacity="0.75"/>
  <rect x="14" y="21" width="4" height="1" fill="#D4A96A" opacity="0.75"/>

  <rect x="10" y="14" width="1" height="4" fill="#D4A96A" opacity="0.75"/>
  <rect x="21" y="14" width="1" height="4" fill="#D4A96A" opacity="0.75"/>

  <!-- Ring 3 (outer, faded) -->
  <rect x="9" y="12" width="2" height="1" fill="#8B6A3E" opacity="0.55"/>
  <rect x="21" y="12" width="2" height="1" fill="#8B6A3E" opacity="0.55"/>
  <rect x="10" y="9" width="2" height="2" fill="#8B6A3E" opacity="0.55"/>
  <rect x="20" y="9" width="2" height="2" fill="#8B6A3E" opacity="0.55"/>
  <rect x="13" y="8" width="6" height="1" fill="#8B6A3E" opacity="0.55"/>

  <rect x="9" y="19" width="2" height="1" fill="#8B6A3E" opacity="0.55"/>
  <rect x="21" y="19" width="2" height="1" fill="#8B6A3E" opacity="0.55"/>
  <rect x="10" y="21" width="2" height="2" fill="#8B6A3E" opacity="0.55"/>
  <rect x="20" y="21" width="2" height="2" fill="#8B6A3E" opacity="0.55"/>
  <rect x="13" y="23" width="6" height="1" fill="#8B6A3E" opacity="0.55"/>

  <rect x="8" y="13" width="1" height="6" fill="#8B6A3E" opacity="0.55"/>
  <rect x="23" y="13" width="1" height="6" fill="#8B6A3E" opacity="0.55"/>

  <!-- Ring 4 (outermost, very faded) -->
  <rect x="7" y="11" width="2" height="1" fill="#5C4226" opacity="0.4"/>
  <rect x="23" y="11" width="2" height="1" fill="#5C4226" opacity="0.4"/>
  <rect x="8" y="7" width="2" height="2" fill="#5C4226" opacity="0.4"/>
  <rect x="22" y="7" width="2" height="2" fill="#5C4226" opacity="0.4"/>
  <rect x="11" y="6" width="10" height="1" fill="#5C4226" opacity="0.4"/>

  <rect x="7" y="20" width="2" height="1" fill="#5C4226" opacity="0.4"/>
  <rect x="23" y="20" width="2" height="1" fill="#5C4226" opacity="0.4"/>
  <rect x="8" y="23" width="2" height="2" fill="#5C4226" opacity="0.4"/>
  <rect x="22" y="23" width="2" height="2" fill="#5C4226" opacity="0.4"/>
  <rect x="11" y="25" width="10" height="1" fill="#5C4226" opacity="0.4"/>

  <rect x="6" y="12" width="1" height="8" fill="#5C4226" opacity="0.4"/>
  <rect x="25" y="12" width="1" height="8" fill="#5C4226" opacity="0.4"/>
</svg>
